<svg width="14" height="16" viewBox="0 0 14 16" fill="none" xmlns="http://www.w3.org/2000/svg">
<path fill-rule="evenodd" clip-rule="evenodd" d="M2.56429 3.0296C2.56429 1.63254 3.68677 0.5 5.07143 0.5C5.84688 0.5 6.54011 0.855209 7 1.41316C7.45989 0.855209 8.15312 0.5 8.92857 0.5C10.3132 0.5 11.4357 1.63254 11.4357 3.0296C11.4357 3.53111 11.2911 3.99852 11.0416 4.3917H11.6286C12.8002 4.3917 13.75 5.35 13.75 6.53213V8.08881C13.75 8.71472 13.3316 9.24202 12.7616 9.4015C12.8727 10.8232 12.8083 12.2542 12.5693 13.6615C12.4266 14.5019 11.7502 15.1456 10.9104 15.2403L10.2049 15.3199C8.07494 15.56 5.92506 15.56 3.79509 15.3199L3.08963 15.2403C2.24984 15.1456 1.5734 14.5018 1.43068 13.6615C1.19167 12.2542 1.1273 10.8232 1.23844 9.40151C0.668422 9.24202 0.25 8.71472 0.25 8.08881V6.53213C0.25 5.35 1.1998 4.3917 2.37143 4.3917H2.95842C2.70893 3.99852 2.56429 3.53111 2.56429 3.0296ZM6.42143 3.0296C6.42143 2.27734 5.81701 1.66751 5.07143 1.66751C4.32584 1.66751 3.72143 2.27734 3.72143 3.0296C3.72143 3.78187 4.32584 4.3917 5.07143 4.3917C5.81701 4.3917 6.42143 3.78187 6.42143 3.0296ZM8.92857 4.3917C9.67416 4.3917 10.2786 3.78187 10.2786 3.0296C10.2786 2.27734 9.67416 1.66751 8.92857 1.66751C8.18299 1.66751 7.57857 2.27734 7.57857 3.0296C7.57857 3.78187 8.18299 4.3917 8.92857 4.3917ZM1.40714 6.53213C1.40714 5.9948 1.83887 5.55921 2.37143 5.55921H6.42143V8.2834H1.6C1.49349 8.2834 1.40714 8.19628 1.40714 8.08881V6.53213ZM7.57857 9.45091H11.6046C11.7129 10.7901 11.654 12.1385 11.4288 13.4643C11.3731 13.792 11.1093 14.0431 10.7818 14.08L10.0764 14.1596C9.24608 14.2532 8.41262 14.3088 7.57857 14.3264V9.45091ZM7.57857 8.2834H12.4C12.5065 8.2834 12.5929 8.19628 12.5929 8.08881V6.53213C12.5929 5.9948 12.1611 5.55921 11.6286 5.55921H7.57857V8.2834ZM6.42143 9.45091V14.3264C5.58738 14.3088 4.75392 14.2532 3.92361 14.1596L3.21816 14.08C2.89066 14.0431 2.62686 13.792 2.5712 13.4643C2.34603 12.1385 2.28714 10.7901 2.39537 9.45091H6.42143Z" fill="#1C1C1C"/>
</svg>
