<svg width="14" height="16" viewBox="0 0 14 16" fill="none" xmlns="http://www.w3.org/2000/svg">
<path fill-rule="evenodd" clip-rule="evenodd" d="M2.43382 3.06486C2.43382 1.64833 3.58932 0.5 5.01471 0.5C5.81297 0.5 6.52659 0.860159 7 1.42589C7.47342 0.860159 8.18703 0.5 8.98529 0.5C10.4107 0.5 11.5662 1.64833 11.5662 3.06486C11.5662 3.66011 11.3621 4.20801 11.0198 4.64323H11.7647C12.8612 4.64323 13.75 5.52656 13.75 6.6162V7.60268C13.75 7.92957 13.4833 8.19457 13.1544 8.19457H7.83382C7.70225 8.19457 7.59559 8.08857 7.59559 7.95782V5.22651C7.3709 5.08355 7.16997 4.90694 7 4.70383C6.83003 4.90694 6.6291 5.08355 6.40441 5.22651V7.95782C6.40441 8.08857 6.29775 8.19457 6.16618 8.19457H0.845588C0.516654 8.19457 0.25 7.92957 0.25 7.60268V6.6162C0.25 5.52656 1.13885 4.64323 2.23529 4.64323H2.98024C2.63787 4.20801 2.43382 3.66011 2.43382 3.06486ZM6.40441 3.06486C6.40441 2.30211 5.78222 1.68378 5.01471 1.68378C4.24719 1.68378 3.625 2.30211 3.625 3.06486C3.625 3.82761 4.24719 4.44593 5.01471 4.44593C5.78222 4.44593 6.40441 3.82761 6.40441 3.06486ZM7.59559 3.06486C7.59559 3.82761 8.21778 4.44593 8.98529 4.44593C9.75281 4.44593 10.375 3.82761 10.375 3.06486C10.375 2.30211 9.75281 1.68378 8.98529 1.68378C8.21778 1.68378 7.59559 2.30211 7.59559 3.06486Z" fill="#1C1C1C"/>
<path d="M6.40441 9.49674C6.40441 9.36598 6.29775 9.25998 6.16618 9.25998H1.95657C1.63443 9.25998 1.35916 9.49065 1.30476 9.80619C1.12842 10.8288 1.12842 11.8738 1.30476 12.8965L1.48289 13.9295C1.60283 14.6251 2.17129 15.158 2.87704 15.2364L3.72287 15.3303C4.53359 15.4204 5.34713 15.4769 6.16139 15.4999C6.29479 15.5037 6.40441 15.3968 6.40441 15.2642V9.49674Z" fill="#1C1C1C"/>
<path d="M7.83861 15.4999C7.70521 15.5037 7.59559 15.3968 7.59559 15.2642L7.59559 9.49674C7.59559 9.36598 7.70225 9.25998 7.83382 9.25998H12.0434C12.3656 9.25998 12.6408 9.49065 12.6952 9.80619C12.8716 10.8288 12.8716 11.8738 12.6952 12.8965L12.5171 13.9295C12.3972 14.6251 11.8287 15.158 11.123 15.2364L10.2771 15.3303C9.46641 15.4204 8.65287 15.4769 7.83861 15.4999Z" fill="#1C1C1C"/>
</svg>
