<svg width="16" height="16" viewBox="0 0 16 16" fill="none" xmlns="http://www.w3.org/2000/svg">
<path d="M5.52373 0.596463C4.37216 0.467846 3.18213 0.467846 2.03057 0.596463C1.28973 0.679207 0.69067 1.2622 0.603305 2.00866C0.465565 3.18555 0.465565 4.37447 0.603305 5.55136C0.69067 6.29782 1.28973 6.88081 2.03057 6.96356C3.18213 7.09217 4.37216 7.09217 5.52373 6.96356C6.26457 6.88081 6.86362 6.29782 6.95099 5.55136C7.08873 4.37447 7.08873 3.18555 6.95099 2.00866C6.86362 1.2622 6.26457 0.679207 5.52373 0.596463Z" fill="#1C1C1C"/>
<path d="M5.52373 9.03644C4.37216 8.90783 3.18213 8.90783 2.03057 9.03644C1.28973 9.11919 0.69067 9.70218 0.603305 10.4486C0.465565 11.6255 0.465565 12.8144 0.603305 13.9913C0.69067 14.7378 1.28973 15.3208 2.03057 15.4035C3.18213 15.5322 4.37216 15.5322 5.52373 15.4035C6.26457 15.3208 6.86362 14.7378 6.95099 13.9913C7.08873 12.8144 7.08873 11.6255 6.95099 10.4486C6.86362 9.70218 6.26457 9.11919 5.52373 9.03644Z" fill="#1C1C1C"/>
<path d="M13.9694 0.596463C12.8179 0.467846 11.6278 0.467846 10.4763 0.596463C9.73543 0.679207 9.13638 1.2622 9.04901 2.00866C8.91127 3.18555 8.91127 4.37447 9.04901 5.55136C9.13638 6.29782 9.73543 6.88081 10.4763 6.96356C11.6278 7.09217 12.8179 7.09217 13.9694 6.96356C14.7103 6.88081 15.3093 6.29782 15.3967 5.55136C15.5344 4.37447 15.5344 3.18555 15.3967 2.00866C15.3093 1.2622 14.7103 0.679207 13.9694 0.596463Z" fill="#1C1C1C"/>
<path d="M13.9694 9.03644C12.8179 8.90783 11.6278 8.90783 10.4763 9.03644C9.73543 9.11919 9.13638 9.70218 9.04901 10.4486C8.91127 11.6255 8.91127 12.8144 9.04901 13.9913C9.13638 14.7378 9.73543 15.3208 10.4763 15.4035C11.6278 15.5322 12.8179 15.5322 13.9694 15.4035C14.7103 15.3208 15.3093 14.7378 15.3967 13.9913C15.5344 12.8144 15.5344 11.6255 15.3967 10.4486C15.3093 9.70218 14.7103 9.11919 13.9694 9.03644Z" fill="#1C1C1C"/>
</svg>
