<svg width="16" height="16" viewBox="0 0 16 16" fill="none" xmlns="http://www.w3.org/2000/svg">
<path fill-rule="evenodd" clip-rule="evenodd" d="M5.47748 1.81883C4.43325 1.7022 3.35231 1.7022 2.30807 1.81883C2.05433 1.84717 1.85423 2.04795 1.82569 2.29181C1.70099 3.35729 1.70099 4.43367 1.82569 5.49916C1.85423 5.74301 2.05433 5.9438 2.30807 5.97214C3.35231 6.08877 4.43325 6.08877 5.47748 5.97214C5.73122 5.9438 5.93132 5.74301 5.95986 5.49916C6.08456 4.43367 6.08456 3.35729 5.95986 2.29181C5.93132 2.04795 5.73122 1.84717 5.47748 1.81883ZM2.17121 0.595093C3.3064 0.468302 4.47915 0.468302 5.61435 0.595093C6.42827 0.686001 7.08743 1.32629 7.18369 2.14877C7.31951 3.30929 7.31951 4.48168 7.18369 5.6422C7.08743 6.46467 6.42827 7.10496 5.61435 7.19587C4.47915 7.32266 3.3064 7.32266 2.17121 7.19587C1.35729 7.10496 0.698126 6.46467 0.601867 5.6422C0.466044 4.48168 0.466044 3.30929 0.601867 2.14877C0.698126 1.3263 1.35729 0.686001 2.17121 0.595093Z" fill="#1C1C1C"/>
<path fill-rule="evenodd" clip-rule="evenodd" d="M5.47748 10.0279C4.43325 9.91123 3.35231 9.91123 2.30807 10.0279C2.05433 10.0562 1.85423 10.257 1.82569 10.5008C1.70099 11.5663 1.70099 12.6427 1.82569 13.7082C1.85423 13.952 2.05433 14.1528 2.30807 14.1812C3.35231 14.2978 4.43325 14.2978 5.47748 14.1812C5.73122 14.1528 5.93132 13.952 5.95986 13.7082C6.08456 12.6427 6.08456 11.5663 5.95986 10.5008C5.93132 10.257 5.73122 10.0562 5.47748 10.0279ZM2.17121 8.80413C3.3064 8.67734 4.47915 8.67734 5.61435 8.80413C6.42827 8.89504 7.08743 9.53533 7.18369 10.3578C7.31951 11.5183 7.31951 12.6907 7.18369 13.8512C7.08743 14.6737 6.42827 15.314 5.61435 15.4049C4.47915 15.5317 3.3064 15.5317 2.17121 15.4049C1.35729 15.314 0.698126 14.6737 0.601867 13.8512C0.466044 12.6907 0.466044 11.5183 0.601867 10.3578C0.698126 9.53533 1.35729 8.89504 2.17121 8.80413Z" fill="#1C1C1C"/>
<path fill-rule="evenodd" clip-rule="evenodd" d="M13.6919 1.81883C12.6477 1.7022 11.5668 1.7022 10.5225 1.81883C10.2688 1.84717 10.0687 2.04795 10.0401 2.29181C9.91544 3.35729 9.91544 4.43367 10.0401 5.49916C10.0687 5.74301 10.2688 5.9438 10.5225 5.97214C11.5668 6.08877 12.6477 6.08877 13.6919 5.97214C13.9457 5.9438 14.1458 5.74301 14.1743 5.49916C14.299 4.43367 14.299 3.35729 14.1743 2.29181C14.1458 2.04795 13.9457 1.84717 13.6919 1.81883ZM10.3857 0.595093C11.5208 0.468302 12.6936 0.468302 13.8288 0.595093C14.6427 0.686001 15.3019 1.32629 15.3981 2.14877C15.534 3.30929 15.534 4.48168 15.3981 5.6422C15.3019 6.46467 14.6427 7.10496 13.8288 7.19587C12.6936 7.32266 11.5208 7.32266 10.3857 7.19587C9.57174 7.10496 8.91257 6.46467 8.81631 5.6422C8.68049 4.48168 8.68049 3.30929 8.81631 2.14877C8.91257 1.3263 9.57174 0.686001 10.3857 0.595093Z" fill="#1C1C1C"/>
<path fill-rule="evenodd" clip-rule="evenodd" d="M13.6919 10.0279C12.6477 9.91123 11.5668 9.91123 10.5225 10.0279C10.2688 10.0562 10.0687 10.257 10.0401 10.5008C9.91544 11.5663 9.91544 12.6427 10.0401 13.7082C10.0687 13.952 10.2688 14.1528 10.5225 14.1812C11.5668 14.2978 12.6477 14.2978 13.6919 14.1812C13.9457 14.1528 14.1458 13.952 14.1743 13.7082C14.299 12.6427 14.299 11.5663 14.1743 10.5008C14.1458 10.257 13.9457 10.0562 13.6919 10.0279ZM10.3857 8.80413C11.5208 8.67734 12.6936 8.67734 13.8288 8.80413C14.6427 8.89504 15.3019 9.53533 15.3981 10.3578C15.534 11.5183 15.534 12.6907 15.3981 13.8512C15.3019 14.6737 14.6427 15.314 13.8288 15.4049C12.6936 15.5317 11.5208 15.5317 10.3857 15.4049C9.57174 15.314 8.91257 14.6737 8.81631 13.8512C8.68049 12.6907 8.68049 11.5183 8.81631 10.3578C8.91257 9.53533 9.57174 8.89504 10.3857 8.80413Z" fill="#1C1C1C"/>
</svg>
