<svg width="18" height="14" viewBox="0 0 18 14" fill="none" xmlns="http://www.w3.org/2000/svg">
<path fill-rule="evenodd" clip-rule="evenodd" d="M17.2478 5.58559L17.25 8.38767C17.2281 8.65462 17.1998 8.92126 17.1652 9.18739C17.1073 9.63244 16.7051 9.99143 16.2 10.0422C14.618 10.2012 12.9808 10.2012 11.3988 10.0422C10.8937 9.99143 10.4915 9.63244 10.4336 9.18739C10.2446 7.73408 10.2446 6.26591 10.4336 4.8126C10.4915 4.36756 10.8937 4.00857 11.3988 3.95779C12.9808 3.79875 14.618 3.79875 16.2 3.95779C16.7051 4.00857 17.1073 4.36756 17.1652 4.8126C17.1986 5.06985 17.2262 5.32757 17.2478 5.58559ZM13.7994 5.83983C13.087 5.83983 12.5095 6.35925 12.5095 7C12.5095 7.64074 13.087 8.16017 13.7994 8.16017C14.5118 8.16017 15.0893 7.64074 15.0893 7C15.0893 6.35925 14.5118 5.83983 13.7994 5.83983Z" fill="#1C1C1C"/>
<path d="M16.7262 2.39005C16.8599 2.59831 16.609 2.83151 16.3432 2.8048C14.666 2.63619 12.9328 2.63619 11.2555 2.8048C10.164 2.91453 9.28122 3.68762 9.15246 4.67783C8.95184 6.22068 8.95184 7.77931 9.15246 9.32217C9.28122 10.3124 10.164 11.0855 11.2555 11.1952C12.9328 11.3638 14.666 11.3638 16.3433 11.1952C16.6107 11.1683 16.8637 11.4031 16.7287 11.6126C16.0592 12.6512 14.8656 13.376 13.4785 13.5073L12.9179 13.5604C10.0709 13.8298 7.19927 13.8121 4.35661 13.5074L3.98518 13.4676C2.45271 13.3033 1.23847 12.2264 1.03435 10.8505C0.655217 8.29482 0.655217 5.70518 1.03435 3.14952C1.23847 1.77359 2.45271 0.696676 3.98518 0.532424L4.35661 0.492613C7.19927 0.187933 10.0709 0.170163 12.9179 0.439635L13.4785 0.49269C14.8667 0.624085 16.0585 1.35005 16.7262 2.39005Z" fill="#1C1C1C"/>
</svg>
