<svg width="14" height="16" viewBox="0 0 14 16" fill="none" xmlns="http://www.w3.org/2000/svg">
<path d="M8.59553 1.12977C7.7228 0.290078 6.27724 0.290077 5.4045 1.12977L1.14177 5.2311C0.896953 5.46664 0.732443 5.76442 0.668964 6.08691C0.151268 8.71698 0.113054 11.4095 0.555928 14.0514L0.712725 14.9868C0.76225 15.2822 1.03539 15.5 1.35635 15.5H4.33496C4.58028 15.5 4.77914 15.3147 4.77914 15.0862V9.29305H9.2209V15.0862C9.2209 15.3147 9.41977 15.5 9.66508 15.5H12.6436C12.9646 15.5 13.2378 15.2822 13.2873 14.9868L13.4441 14.0514C13.8869 11.4095 13.8487 8.71698 13.331 6.08691C13.2676 5.76442 13.103 5.46664 12.8582 5.2311L8.59553 1.12977Z" fill="#1C1C1C"/>
</svg>
