<svg width="14" height="16" viewBox="0 0 14 16" fill="none" xmlns="http://www.w3.org/2000/svg">
<path fill-rule="evenodd" clip-rule="evenodd" d="M8.25922 2.23903C7.55552 1.55589 6.44448 1.55589 5.74078 2.23903L2.00113 5.86944C1.90951 5.95839 1.84788 6.07426 1.82497 6.20063C1.37706 8.67185 1.34399 11.2018 1.72717 13.6841L1.81813 14.2733H4.22406V9.19381C4.22406 8.85507 4.49548 8.58047 4.8303 8.58047H9.1697C9.50452 8.58047 9.77594 8.85507 9.77594 9.19381V14.2733H12.1819L12.2728 13.6841C12.656 11.2018 12.6229 8.67185 12.175 6.20063C12.1521 6.07426 12.0905 5.95839 11.9989 5.86944L8.25922 2.23903ZM4.9013 1.35393C6.07413 0.215357 7.92587 0.215357 9.0987 1.35393L12.8383 4.98434C13.1136 5.25159 13.2988 5.59971 13.3676 5.97937C13.8401 8.58616 13.875 11.2549 13.4708 13.8734L13.3247 14.8199C13.2642 15.2114 12.931 15.5 12.5394 15.5H9.1697C8.83489 15.5 8.56346 15.2254 8.56346 14.8867V9.80714H5.43654V14.8867C5.43654 15.2254 5.16512 15.5 4.8303 15.5H1.46063C1.06901 15.5 0.735753 15.2114 0.675327 14.8199L0.529213 13.8734C0.125013 11.2549 0.15989 8.58616 0.632378 5.97937C0.701193 5.59971 0.886366 5.25159 1.16166 4.98434L4.9013 1.35393Z" fill="#1C1C1C"/>
</svg>
