<svg width="16" height="16" viewBox="0 0 16 16" fill="none" xmlns="http://www.w3.org/2000/svg">
<path d="M8.00002 6.89577C8.36652 6.89577 8.66363 7.1924 8.66363 7.55831V11.9752C8.66363 12.3411 8.36652 12.6378 8.00002 12.6378C7.63351 12.6378 7.3364 12.3411 7.3364 11.9752L7.3364 7.55831C7.3364 7.1924 7.63351 6.89577 8.00002 6.89577Z" fill="#1C1C1C"/>
<path d="M8.00002 5.34984C8.48869 5.34984 8.88484 4.95434 8.88484 4.46645C8.88484 3.97857 8.48869 3.58307 8.00002 3.58307C7.51134 3.58307 7.1152 3.97857 7.1152 4.46645C7.1152 4.95434 7.51134 5.34984 8.00002 5.34984Z" fill="#1C1C1C"/>
<path fill-rule="evenodd" clip-rule="evenodd" d="M3.85617 0.728629C6.5881 0.42379 9.41191 0.42379 12.1438 0.728629C13.7599 0.90895 15.0649 2.17983 15.255 3.80257C15.5817 6.59136 15.5817 9.40865 15.255 12.1974C15.0649 13.8202 13.7599 15.0911 12.1438 15.2714C9.4119 15.5762 6.5881 15.5762 3.85617 15.2714C2.24015 15.0911 0.93513 13.8202 0.745027 12.1974C0.418324 9.40865 0.418324 6.59136 0.745027 3.80257C0.93513 2.17983 2.24015 0.90895 3.85617 0.728629ZM11.9964 2.04551C9.36246 1.7516 6.63754 1.7516 4.00359 2.04551C2.99097 2.1585 2.18043 2.95641 2.06327 3.9565C1.74855 6.64301 1.74855 9.35699 2.06327 12.0435C2.18043 13.0436 2.99097 13.8415 4.00359 13.9545C6.63754 14.2484 9.36246 14.2484 11.9964 13.9545C13.009 13.8415 13.8196 13.0436 13.9367 12.0435C14.2515 9.35699 14.2515 6.64301 13.9367 3.9565C13.8196 2.95641 13.009 2.1585 11.9964 2.04551Z" fill="#1C1C1C"/>
</svg>
