<svg width="16" height="15" viewBox="0 0 16 15" fill="none" xmlns="http://www.w3.org/2000/svg">
<path d="M14.3608 1.9375H4.00136L3.11622 0.350947C3.01687 0.172865 2.82892 0.0625 2.625 0.0625H1.5C1.18934 0.0625 0.9375 0.31434 0.9375 0.625C0.9375 0.93566 1.18934 1.1875 1.5 1.1875H2.2947L3.16822 2.75324L5.18278 7.21066L5.18484 7.21521L5.36228 7.60781L3.33965 9.76528C3.19422 9.92041 3.14869 10.1443 3.22199 10.3439C3.29529 10.5435 3.47488 10.6847 3.68614 10.7089L5.52974 10.9196C7.83575 11.1831 10.1643 11.1831 12.4703 10.9196L14.3139 10.7089C14.6225 10.6736 14.8442 10.3948 14.8089 10.0861C14.7736 9.77748 14.4948 9.55587 14.1861 9.59114L12.3425 9.80184C10.1214 10.0557 7.87861 10.0557 5.65749 9.80184L4.92585 9.71822L6.41038 8.13472C6.42474 8.1194 6.43808 8.10349 6.45039 8.08708L7.015 8.16054C7.8062 8.26349 8.60596 8.28368 9.40134 8.22077C11.2564 8.07405 12.9758 7.19131 14.1761 5.7693L14.6097 5.25569C14.6242 5.23844 14.6377 5.22033 14.6501 5.20146L15.4581 3.97007C16.0309 3.09724 15.4048 1.9375 14.3608 1.9375Z" fill="#1C1C1C"/>
<path d="M4.875 11.875C4.25368 11.875 3.75 12.3787 3.75 13C3.75 13.6213 4.25368 14.125 4.875 14.125C5.49632 14.125 6 13.6213 6 13C6 12.3787 5.49632 11.875 4.875 11.875Z" fill="#1C1C1C"/>
<path d="M12 13C12 12.3787 12.5037 11.875 13.125 11.875C13.7463 11.875 14.25 12.3787 14.25 13C14.25 13.6213 13.7463 14.125 13.125 14.125C12.5037 14.125 12 13.6213 12 13Z" fill="#1C1C1C"/>
</svg>
