<svg width="12" height="16" viewBox="0 0 12 16" fill="none" xmlns="http://www.w3.org/2000/svg">
<path fill-rule="evenodd" clip-rule="evenodd" d="M2.8125 2.56551C2.8125 1.42476 3.73591 0.5 4.875 0.5H6.375C7.51409 0.5 8.4375 1.42476 8.4375 2.56551V4.0677C8.4375 4.37882 8.18566 4.63103 7.875 4.63103H3.375C3.06434 4.63103 2.8125 4.37882 2.8125 4.0677V2.56551ZM4.875 1.62664C4.35723 1.62664 3.9375 2.04699 3.9375 2.56551V3.50438H7.3125V2.56551C7.3125 2.04699 6.89277 1.62664 6.375 1.62664H4.875Z" fill="#1C1C1C"/>
<path fill-rule="evenodd" clip-rule="evenodd" d="M1.4902 2.51201C1.58501 2.46649 1.69029 2.53894 1.69009 2.64425L1.6875 4.06771C1.6875 5.00105 2.44302 5.75768 3.375 5.75768H7.875C8.80698 5.75768 9.5625 5.00105 9.5625 4.06771V2.64382C9.5625 2.53864 9.66769 2.46637 9.7624 2.51184C10.6512 2.93858 11.25 3.84747 11.25 4.88299V12.7615C11.25 14.0465 10.2943 15.1302 9.02102 15.289C6.76572 15.5703 4.48428 15.5703 2.22898 15.289C0.955734 15.1302 0 14.0465 0 12.7615V4.88299C0 3.84761 0.601208 2.93882 1.4902 2.51201ZM7.875 7.82318C8.18566 7.82318 8.4375 8.07539 8.4375 8.38651C8.4375 8.69762 8.18566 8.94983 7.875 8.94983H3.375C3.06434 8.94983 2.8125 8.69762 2.8125 8.38651C2.8125 8.07539 3.06434 7.82318 3.375 7.82318H7.875ZM7.125 10.0765C7.43566 10.0765 7.6875 10.3287 7.6875 10.6398C7.6875 10.9509 7.43566 11.2031 7.125 11.2031H3.375C3.06434 11.2031 2.8125 10.9509 2.8125 10.6398C2.8125 10.3287 3.06434 10.0765 3.375 10.0765H7.125Z" fill="#1C1C1C"/>
</svg>
