<svg width="12" height="16" viewBox="0 0 12 16" fill="none" xmlns="http://www.w3.org/2000/svg">
<path fill-rule="evenodd" clip-rule="evenodd" d="M8.27427 1.99319L8.8646 2.06833C10.2272 2.24178 11.25 3.4254 11.25 4.82879V12.61C11.25 13.9726 10.2569 15.1218 8.9339 15.2902C6.73645 15.5699 4.51355 15.5699 2.3161 15.2902C0.99309 15.1218 0 13.9726 0 12.61V4.82879C0 3.42539 1.0228 2.24178 2.3854 2.06833L2.97573 1.99319C3.20958 1.13206 3.98216 0.5 4.89919 0.5H6.35081C7.26784 0.5 8.04042 1.13206 8.27427 1.99319ZM2.90323 3.12373L2.51995 3.17252C1.70239 3.27658 1.08871 3.98676 1.08871 4.82879V12.61C1.08871 13.4112 1.67268 14.087 2.45065 14.186C4.55874 14.4544 6.69126 14.4544 8.79935 14.186C9.57732 14.087 10.1613 13.4112 10.1613 12.61V4.82879C10.1613 3.98676 9.54761 3.27658 8.73005 3.17252L8.34677 3.12373V4.0236C8.34677 4.33086 8.10306 4.57995 7.80242 4.57995H3.44758C3.14694 4.57995 2.90323 4.33086 2.90323 4.0236V3.12373ZM3.99194 2.53998C3.99194 2.02786 4.39813 1.61271 4.89919 1.61271H6.35081C6.85187 1.61271 7.25806 2.02786 7.25806 2.53998V3.46724H3.99194V2.53998Z" fill="#1C1C1C"/>
<path d="M8.34677 7.54719C8.34677 7.23993 8.10306 6.99084 7.80242 6.99084H3.44758C3.14694 6.99084 2.90323 7.23993 2.90323 7.54719C2.90323 7.85446 3.14694 8.10355 3.44758 8.10355H7.80242C8.10306 8.10355 8.34677 7.85446 8.34677 7.54719Z" fill="#1C1C1C"/>
<path d="M7.62097 9.77262C7.62097 9.46536 7.37725 9.21627 7.07661 9.21627H3.44758C3.14694 9.21627 2.90323 9.46536 2.90323 9.77262C2.90323 10.0799 3.14694 10.329 3.44758 10.329H7.07661C7.37725 10.329 7.62097 10.0799 7.62097 9.77262Z" fill="#1C1C1C"/>
</svg>
