<svg width="16" height="14" viewBox="0 0 16 14" fill="none" xmlns="http://www.w3.org/2000/svg">
<path fill-rule="evenodd" clip-rule="evenodd" d="M4.10926 1.89807V3.03143L2.72175 3.14052C1.74072 3.21765 0.940482 3.93709 0.783145 4.88339C0.74895 5.08905 0.717853 5.29507 0.689853 5.5014C0.675959 5.60378 0.732016 5.70288 0.827847 5.74707L0.890963 5.77618C5.33765 7.82692 10.6624 7.82693 15.1091 5.77618L15.1722 5.74708C15.268 5.70289 15.324 5.60379 15.3101 5.5014C15.2821 5.29508 15.251 5.08905 15.2169 4.88339C15.0595 3.93709 14.2593 3.21765 13.2783 3.14052L11.8908 3.03143V1.89807C11.8908 1.20698 11.3717 0.619873 10.67 0.517355L9.67072 0.371367C8.56311 0.209544 7.4369 0.209545 6.32929 0.371367L5.33005 0.517355C4.62836 0.619873 4.10926 1.20698 4.10926 1.89807ZM9.48846 1.55484C8.50168 1.41067 7.49833 1.41067 6.51155 1.55484L5.51231 1.70083C5.41207 1.71547 5.33791 1.79935 5.33791 1.89807V2.9472C7.11119 2.84826 8.88882 2.84826 10.6621 2.9472V1.89807C10.6621 1.79935 10.5879 1.71547 10.4877 1.70083L9.48846 1.55484Z" fill="#1C1C1C"/>
<path d="M15.4689 7.17133C15.4627 7.05955 15.3426 6.98972 15.2375 7.03504C10.6743 9.00293 5.32566 9.00292 0.762491 7.03503C0.657402 6.98971 0.537253 7.05954 0.531142 7.17132C0.447779 8.69629 0.53178 10.2278 0.783145 11.7396C0.940482 12.6859 1.74072 13.4053 2.72175 13.4825L4.25505 13.603C6.74763 13.799 9.25237 13.799 11.745 13.603L13.2782 13.4825C14.2593 13.4053 15.0595 12.6859 15.2169 11.7396C15.4682 10.2278 15.5522 8.6963 15.4689 7.17133Z" fill="#1C1C1C"/>
</svg>
