<svg width="16" height="14" viewBox="0 0 16 14" fill="none" xmlns="http://www.w3.org/2000/svg">
<path fill-rule="evenodd" clip-rule="evenodd" d="M4.21266 2.79375V1.87408C4.21266 1.19304 4.71797 0.614488 5.40102 0.513463L6.3737 0.3696C7.45187 0.210134 8.54814 0.210133 9.62632 0.3696L10.599 0.513463C11.282 0.614488 11.7873 1.19304 11.7873 1.87408V2.79375L13.154 2.90252C14.2004 2.98581 15.054 3.76268 15.2218 4.78451C15.5927 7.04288 15.5927 9.34538 15.2218 11.6037C15.054 12.6256 14.2004 13.4024 13.154 13.4857L11.6615 13.6045C9.22445 13.7985 6.77555 13.7985 4.33854 13.6045L2.846 13.4857C1.79958 13.4024 0.946007 12.6256 0.778183 11.6037C0.407272 9.34538 0.407272 7.04288 0.778183 4.78451C0.946007 3.76268 1.79958 2.98581 2.846 2.90252L4.21266 2.79375ZM6.55111 1.53584C7.51167 1.39377 8.48834 1.39377 9.4489 1.53584L10.4216 1.67971C10.5192 1.69414 10.5913 1.77679 10.5913 1.87408V2.71106C8.86519 2.61399 7.13482 2.61399 5.40867 2.71106V1.87408C5.40867 1.77679 5.48085 1.69414 5.57843 1.67971L6.55111 1.53584ZM4.43477 3.9592C6.80773 3.77033 9.19227 3.77033 11.5652 3.9592L13.0578 4.07799C13.5554 4.1176 13.9614 4.48707 14.0412 4.97303C14.0909 5.27566 14.1336 5.57913 14.1692 5.88319C10.2801 7.77147 5.71993 7.77147 1.83085 5.8832C1.86645 5.57913 1.9091 5.27566 1.9588 4.97303C2.03862 4.48707 2.44457 4.1176 2.94222 4.07799L4.43477 3.9592ZM1.72409 7.138C5.71029 8.92559 10.2897 8.92559 14.2759 7.138C14.3519 8.56586 14.2737 9.99972 14.0412 11.4152C13.9614 11.9012 13.5554 12.2707 13.0578 12.3103L11.5652 12.4291C9.19227 12.6179 6.80773 12.6179 4.43477 12.4291L2.94222 12.3103C2.44457 12.2707 2.03862 11.9012 1.9588 11.4152C1.72632 9.99972 1.64809 8.56586 1.72409 7.138Z" fill="#1C1C1C"/>
</svg>
