<svg width="14" height="14" viewBox="0 0 14 14" fill="none" xmlns="http://www.w3.org/2000/svg">
<path d="M10.3769 1.74131C10.1639 1.74117 9.95119 1.76001 9.74209 1.79756C9.10725 0.982732 8.08824 0.5 7.00324 0.5C5.91823 0.5 4.89938 0.982732 4.26454 1.79756C3.1673 1.60227 2.03691 1.92209 1.24499 2.65189C0.453037 3.38156 0.102099 4.42686 0.30773 5.44367C0.513364 6.46063 1.24878 7.31749 2.27211 7.7325V12.9983C2.27211 13.1641 2.34327 13.3233 2.4699 13.4405C2.59654 13.5578 2.76841 13.6237 2.94751 13.6237H11.0523C11.2314 13.6237 11.4033 13.5578 11.5299 13.4405C11.6566 13.3233 11.7277 13.1641 11.7277 12.9983V7.7325C12.6817 7.34569 13.3896 6.57288 13.646 5.63826C13.9024 4.70353 13.6788 3.71155 13.0399 2.95004C12.401 2.18842 11.4184 1.74242 10.3769 1.74131Z" fill="#1C1C1C"/>
</svg>
