<svg width="14" height="14" viewBox="0 0 14 14" fill="none" xmlns="http://www.w3.org/2000/svg">
<path d="M10.3769 1.74131C10.1639 1.74117 9.95119 1.76001 9.74209 1.79756C9.10725 0.982732 8.08824 0.5 7.00324 0.5C5.91823 0.5 4.89938 0.982732 4.26454 1.79756C3.1673 1.60227 2.03691 1.92209 1.24499 2.65189C0.453037 3.38156 0.102099 4.42686 0.30773 5.44367C0.513364 6.46063 1.24878 7.31749 2.27211 7.7325V12.9983C2.27211 13.1641 2.34327 13.3233 2.4699 13.4405C2.59654 13.5578 2.76841 13.6237 2.94751 13.6237H11.0523C11.2314 13.6237 11.4033 13.5578 11.5299 13.4405C11.6566 13.3233 11.7277 13.1641 11.7277 12.9983V7.7325C12.6817 7.34569 13.3896 6.57288 13.646 5.63826C13.9024 4.70353 13.6788 3.71155 13.0399 2.95004C12.401 2.18842 11.4184 1.74239 10.3769 1.74128V1.74131ZM10.8835 6.68191C10.7348 6.71737 10.6037 6.79861 10.5117 6.91224C10.4196 7.02601 10.3721 7.16533 10.3769 7.30731V12.373H3.62291V7.28873C3.62773 7.14662 3.58024 7.0073 3.48813 6.89366C3.39617 6.78003 3.26501 6.69878 3.11636 6.66332C2.49931 6.49092 2.00766 6.05719 1.79195 5.49491C1.57637 4.93263 1.66245 4.30878 2.02382 3.81472C2.38534 3.32069 2.97903 3.01525 3.62294 2.9922C3.8539 2.99471 4.08244 3.03492 4.29834 3.111C4.45664 3.16739 4.63212 3.16656 4.7898 3.10862C4.94749 3.05069 5.07579 2.93985 5.14936 2.7983C5.37354 2.37768 5.75993 2.05019 6.23213 1.88019C6.70429 1.7103 7.22806 1.7103 7.70022 1.88019C8.17238 2.05022 8.55879 2.37771 8.78298 2.7983C8.85655 2.93985 8.98485 3.05069 9.14254 3.10862C9.30024 3.16655 9.47572 3.16739 9.63401 3.111C9.87085 3.02668 10.1232 2.9862 10.3769 2.9922C11.0373 2.99583 11.6543 3.29722 12.0303 3.79992C12.4065 4.30245 12.4944 4.94321 12.2661 5.51696C12.0379 6.09086 11.5218 6.52556 10.8835 6.68205L10.8835 6.68191Z" fill="#1C1C1C"/>
</svg>
