<svg width="16" height="12" viewBox="0 0 16 12" fill="none" xmlns="http://www.w3.org/2000/svg">
<path d="M4.14472 0.168047C6.71007 -0.0560156 9.28993 -0.0560158 11.8553 0.168047L13.0912 0.275998C13.914 0.347861 14.6187 0.840959 14.9838 1.5463C15.0305 1.63653 14.9955 1.74578 14.9094 1.79932L9.78147 4.9889C8.68167 5.67297 7.2949 5.68732 6.18131 5.02615L1.01907 1.96121C0.935667 1.9117 0.897384 1.80976 0.934971 1.72005C1.269 0.922793 2.01998 0.353627 2.90877 0.275998L4.14472 0.168047Z" fill="#1C1C1C"/>
<path d="M0.93077 3.34146C0.803132 3.26568 0.64027 3.34723 0.625392 3.49544C0.417738 5.56401 0.467996 7.65215 0.776166 9.71124C0.938627 10.7968 1.82036 11.6289 2.90877 11.724L4.14472 11.832C6.71007 12.056 9.28993 12.056 11.8553 11.832L13.0912 11.724C14.1796 11.6289 15.0614 10.7968 15.2238 9.71124C15.541 7.59215 15.585 5.44228 15.3558 3.31465C15.3397 3.16539 15.1741 3.08534 15.047 3.16437L10.4276 6.03763C8.93965 6.96314 7.06343 6.98256 5.5568 6.08804L0.93077 3.34146Z" fill="#1C1C1C"/>
</svg>
