<svg width="16" height="12" viewBox="0 0 16 12" fill="none" xmlns="http://www.w3.org/2000/svg">
<path fill-rule="evenodd" clip-rule="evenodd" d="M0.653931 3.10071C0.430151 5.17013 0.440126 7.55684 0.751519 9.61786C0.92382 10.7583 1.85896 11.6325 3.01329 11.7324L4.21967 11.8368C6.73514 12.0544 9.26485 12.0544 11.7803 11.8368L12.9867 11.7324C14.141 11.6325 15.0762 10.7583 15.2485 9.61786C15.5599 7.55683 15.5699 5.17026 15.3461 3.10084C15.3171 2.86092 15.2846 2.62133 15.2485 2.38214C15.0762 1.24174 14.141 0.367473 12.9867 0.267602L11.7803 0.163227C9.26485 -0.054409 6.73514 -0.0544089 4.21967 0.163227L3.01329 0.267602C1.85896 0.367473 0.92382 1.24174 0.751519 2.38214C0.715387 2.62129 0.682858 2.86084 0.653931 3.10071ZM4.32343 1.35131C6.76986 1.13965 9.23013 1.13965 11.6766 1.35131L12.8829 1.45569C13.4855 1.50782 13.9736 1.96419 14.0636 2.55948C14.0729 2.6213 14.082 2.68315 14.0908 2.74503L9.64869 5.20128C8.62334 5.76823 7.37659 5.76823 6.35125 5.20128L1.90914 2.74506C1.91797 2.68317 1.92706 2.62131 1.93641 2.55948C2.02635 1.96419 2.51449 1.50782 3.11705 1.45569L4.32343 1.35131ZM14.2375 4.0282C14.3924 5.83117 14.3345 7.64772 14.0636 9.44052C13.9736 10.0358 13.4855 10.4922 12.8829 10.5443L11.6766 10.6487C9.23013 10.8603 6.76986 10.8603 4.32343 10.6487L3.11705 10.5443C2.51449 10.4922 2.02635 10.0358 1.93641 9.44052C1.66554 7.64773 1.60758 5.83119 1.76252 4.02823L5.76934 6.24377C7.15657 7.01082 8.84336 7.01082 10.2306 6.24377L14.2375 4.0282Z" fill="#1C1C1C"/>
</svg>
