<svg width="16" height="15" viewBox="0 0 16 15" fill="none" xmlns="http://www.w3.org/2000/svg">
<path fill-rule="evenodd" clip-rule="evenodd" d="M1.69175 10.1568C-0.229213 5.54538 3.23958 0.5 8.33095 0.5H8.60563C12.4133 0.5 15.5 3.51884 15.5 7.24275C15.5 11.3889 12.0633 14.75 7.82395 14.75H1.14096C0.86899 14.75 0.626632 14.5821 0.536366 14.3312C0.4461 14.0803 0.527583 13.801 0.739639 13.6344L2.42442 12.3112C2.49808 12.2533 2.52414 12.155 2.48849 12.0694L1.69175 10.1568ZM8.33095 1.75367C4.14994 1.75367 1.30138 5.89691 2.87886 9.68376L3.67561 11.5964C3.92514 12.1954 3.74273 12.8836 3.22707 13.2886L2.96262 13.4963H7.82395C11.3554 13.4963 14.2181 10.6965 14.2181 7.24275C14.2181 4.21121 11.7053 1.75367 8.60563 1.75367H8.33095Z" fill="#1C1C1C"/>
</svg>
