<svg width="14" height="16" viewBox="0 0 14 16" fill="none" xmlns="http://www.w3.org/2000/svg">
<path d="M6.99998 5.39872C5.59117 5.39872 4.44911 6.56335 4.44911 7.99999C4.44911 9.43663 5.59117 10.6013 6.99998 10.6013C8.40879 10.6013 9.55085 9.43663 9.55085 7.99999C9.55085 6.56335 8.40879 5.39872 6.99998 5.39872Z" fill="#1C1C1C"/>
<path fill-rule="evenodd" clip-rule="evenodd" d="M7.53364 0.641013C7.20177 0.452996 6.79823 0.452996 6.46636 0.641012L0.815195 3.84257C0.466352 4.0402 0.25 4.41516 0.25 4.8221V11.1779C0.25 11.5848 0.466351 11.9598 0.815194 12.1574L6.46636 15.359C6.79823 15.547 7.20177 15.547 7.53364 15.359L13.1848 12.1574C13.5336 11.9598 13.75 11.5848 13.75 11.1779V4.8221C13.75 4.41516 13.5336 4.0402 13.1848 3.84257L7.53364 0.641013ZM3.27178 7.99999C3.27178 5.90028 4.94095 4.19814 6.99998 4.19814C9.05901 4.19814 10.7282 5.90028 10.7282 7.99999C10.7282 10.0997 9.05901 11.8018 6.99998 11.8018C4.94095 11.8018 3.27178 10.0997 3.27178 7.99999Z" fill="#1C1C1C"/>
</svg>
