<svg width="14" height="16" viewBox="0 0 14 16" fill="none" xmlns="http://www.w3.org/2000/svg">
<path fill-rule="evenodd" clip-rule="evenodd" d="M6.38883 0.661874C6.76892 0.446042 7.23108 0.446042 7.61117 0.661875L13.1027 3.78024C13.5022 4.0071 13.75 4.43753 13.75 4.90469V11.0953C13.75 11.5625 13.5022 11.9929 13.1027 12.2198L7.61117 15.3381C7.23108 15.554 6.76892 15.554 6.38883 15.3381L0.897305 12.2198C0.497782 11.9929 0.25 11.5625 0.25 11.0953V4.90469C0.25 4.43753 0.497783 4.0071 0.897305 3.78024L6.38883 0.661874ZM7.05556 1.6841C7.02101 1.66448 6.97899 1.66448 6.94444 1.6841L1.45291 4.80246C1.41659 4.82309 1.39407 4.86222 1.39407 4.90469V11.0953C1.39407 11.1378 1.41659 11.1769 1.45291 11.1975L6.94444 14.3159C6.97899 14.3355 7.02101 14.3355 7.05556 14.3159L12.5471 11.1975C12.5834 11.1769 12.6059 11.1378 12.6059 11.0953V4.90469C12.6059 4.86222 12.5834 4.82309 12.5471 4.80246L7.05556 1.6841Z" fill="#1C1C1C"/>
<path fill-rule="evenodd" clip-rule="evenodd" d="M3.37712 8C3.37712 5.95486 4.99914 4.29695 7 4.29695C9.00086 4.29695 10.6229 5.95486 10.6229 8C10.6229 10.0451 9.00086 11.7031 7 11.7031C4.99914 11.7031 3.37712 10.0451 3.37712 8ZM7 5.46633C5.63099 5.46633 4.52119 6.60069 4.52119 8C4.52119 9.39931 5.63099 10.5337 7 10.5337C8.36901 10.5337 9.47881 9.39931 9.47881 8C9.47881 6.60069 8.36901 5.46633 7 5.46633Z" fill="#1C1C1C"/>
</svg>
