<svg width="14" height="16" viewBox="0 0 14 16" fill="none" xmlns="http://www.w3.org/2000/svg">
<path fill-rule="evenodd" clip-rule="evenodd" d="M3.29839 4.25463C3.29839 2.181 4.95566 0.5 7 0.5C9.04434 0.5 10.7016 2.181 10.7016 4.25463C10.7016 6.32825 9.04434 8.00925 7 8.00925C4.95566 8.00925 3.29839 6.32825 3.29839 4.25463ZM7 1.82516C5.67719 1.82516 4.60484 2.91287 4.60484 4.25463C4.60484 5.59638 5.67719 6.68409 7 6.68409C8.32281 6.68409 9.39516 5.59638 9.39516 4.25463C9.39516 2.91287 8.32281 1.82516 7 1.82516Z" fill="#1C1C1C"/>
<path fill-rule="evenodd" clip-rule="evenodd" d="M3.51613 10.6596C2.43383 10.6596 1.55645 11.5495 1.55645 12.6473V13.6971C1.55645 13.7131 1.56787 13.7267 1.58343 13.7293C5.17073 14.3234 8.82927 14.3234 12.4166 13.7293C12.4321 13.7267 12.4435 13.7131 12.4435 13.6971V12.6473C12.4435 11.5495 11.5662 10.6596 10.4839 10.6596H10.187C10.164 10.6596 10.1412 10.6633 10.1194 10.6705L9.36556 10.9202C7.82845 11.4293 6.17154 11.4293 4.63444 10.9202L3.8806 10.6705C3.85878 10.6633 3.83597 10.6596 3.81301 10.6596H3.51613ZM0.25 12.6473C0.25 10.8177 1.7123 9.33441 3.51613 9.33441H3.81301C3.9737 9.33441 4.13338 9.36019 4.28613 9.41078L5.03996 9.66045C6.31357 10.0823 7.68643 10.0823 8.96004 9.66045L9.71387 9.41078C9.86662 9.36019 10.0263 9.33441 10.187 9.33441H10.4839C12.2877 9.33441 13.75 10.8177 13.75 12.6473V13.6971C13.75 14.3625 13.2746 14.9299 12.6271 15.0371C8.90037 15.6543 5.09963 15.6543 1.37291 15.0371C0.725447 14.9299 0.25 14.3625 0.25 13.6971V12.6473Z" fill="#1C1C1C"/>
</svg>
