<svg width="14" height="16" viewBox="0 0 14 16" fill="none" xmlns="http://www.w3.org/2000/svg">
<path d="M7 0.5C5.19617 0.5 3.73387 2.02824 3.73387 3.91342C3.73387 5.79861 5.19617 7.32685 7 7.32685C8.80383 7.32685 10.2661 5.79861 10.2661 3.91342C10.2661 2.02824 8.80383 0.5 7 0.5Z" fill="#1C1C1C"/>
<path d="M3.51613 9.14734C1.7123 9.14734 0.25 10.6756 0.25 12.5608V13.6424C0.25 14.328 0.725447 14.9126 1.37291 15.0231C5.09963 15.659 8.90037 15.659 12.6271 15.0231C13.2746 14.9126 13.75 14.328 13.75 13.6424V12.5608C13.75 10.6756 12.2877 9.14734 10.4839 9.14734H10.187C10.0263 9.14734 9.86662 9.1739 9.71387 9.22602L8.96004 9.48327C7.68643 9.9179 6.31357 9.9179 5.03996 9.48327L4.28613 9.22602C4.13338 9.1739 3.9737 9.14734 3.81301 9.14734H3.51613Z" fill="#1C1C1C"/>
</svg>
