<svg width="19" height="19" viewBox="0 0 19 19" fill="" xmlns="http://www.w3.org/2000/svg">
<path d="M17.486 1.51583C18.0484 2.07841 18.3644 2.84134 18.3644 3.63683C18.3644 4.43232 18.0484 5.19525 17.486 5.75783L6.40552 16.8383C5.925 17.3185 5.32307 17.6591 4.66402 17.8238L1.22752 18.6833C1.10181 18.7147 0.970111 18.713 0.845263 18.6783C0.720415 18.6437 0.606676 18.5772 0.515131 18.4855C0.423587 18.3939 0.357359 18.28 0.322903 18.1551C0.288447 18.0302 0.286938 17.8985 0.318523 17.7728L1.17652 14.3378C1.3414 13.6781 1.68257 13.0756 2.16352 12.5948L13.2425 1.51583C13.5211 1.23712 13.8519 1.01604 14.2159 0.865196C14.58 0.714356 14.9702 0.636719 15.3643 0.636719C15.7583 0.636719 16.1485 0.714356 16.5126 0.865196C16.8767 1.01604 17.2074 1.23712 17.486 1.51583ZM12.182 4.69583L3.22552 13.6568C2.93743 13.9453 2.73316 14.3067 2.63452 14.7023L2.07802 16.9268L4.30102 16.3703C4.6968 16.2713 5.05819 16.0665 5.34652 15.7778L14.3045 6.81983L12.1835 4.69883L12.182 4.69583ZM14.3045 2.57633L13.2425 3.63683L15.3635 5.75783L16.4255 4.69733C16.6988 4.41443 16.85 4.03552 16.8465 3.64223C16.8431 3.24893 16.6854 2.87271 16.4072 2.5946C16.1291 2.31649 15.7529 2.15873 15.3596 2.15532C14.9663 2.1519 14.5874 2.30309 14.3045 2.57633Z" fill="#1890ff"/>
</svg>
