<svg width="16" height="14" viewBox="0 0 18 14" fill="none" xmlns="http://www.w3.org/2000/svg">
<path d="M11.5535 6.99999C11.5535 6.34035 12.0939 5.80561 12.7605 5.80561C13.4272 5.80561 13.9676 6.34035 13.9676 6.99999C13.9676 7.65963 13.4272 8.19437 12.7605 8.19437C12.0939 8.19437 11.5535 7.65963 11.5535 6.99999Z" fill="#1890FF"/>
<path fill-rule="evenodd" clip-rule="evenodd" d="M15.5298 2.75915C15.0005 1.52841 13.831 0.643671 12.4392 0.498754L11.9146 0.444134C9.26525 0.168269 6.59301 0.186461 3.94772 0.49837L3.60013 0.539354C2.25723 0.697697 1.1932 1.73586 1.01433 3.06229C0.661891 5.67585 0.661891 8.32415 1.01433 10.9377C1.1932 12.2641 2.25723 13.3023 3.60013 13.4606L3.94772 13.5016C6.59301 13.8135 9.26525 13.8317 11.9146 13.5559L12.4392 13.5012C13.831 13.3563 15.0005 12.4716 15.5298 11.2408C16.3661 10.9945 17.0044 10.2771 17.1092 9.39065C17.2969 7.8023 17.2969 6.1977 17.1092 4.60935C17.0044 3.72294 16.3661 3.00553 15.5298 2.75915ZM11.7883 1.63196C9.22844 1.36541 6.64647 1.38299 4.09055 1.68436L3.74296 1.72535C2.94725 1.81917 2.31678 2.43431 2.21079 3.22026C1.8725 5.72897 1.8725 8.27103 2.21079 10.7797C2.31678 11.5657 2.94725 12.1808 3.74296 12.2747L4.09055 12.3156C6.64647 12.617 9.22843 12.6346 11.7883 12.368L12.3129 12.3134C12.9973 12.2422 13.6029 11.9083 14.0226 11.4128C12.809 11.4828 11.5792 11.4515 10.38 11.3189C9.35852 11.206 8.53241 10.4101 8.41191 9.39065C8.22417 7.8023 8.22417 6.1977 8.41191 4.60935C8.53241 3.58993 9.35853 2.79404 10.38 2.68108C11.5792 2.54846 12.809 2.51717 14.0226 2.5872C13.6029 2.09167 12.9973 1.75785 12.3129 1.68658L11.7883 1.63196ZM14.5932 3.82668C14.5937 3.82974 14.5942 3.83279 14.5946 3.83585L14.5995 3.86682L14.7593 3.84225C14.8421 3.85035 14.9246 3.85896 15.007 3.86807C15.4797 3.92035 15.8561 4.28992 15.9103 4.7481C16.0871 6.24426 16.0871 7.75573 15.9103 9.2519C15.8561 9.71007 15.4797 10.0796 15.007 10.1319C14.9246 10.141 14.842 10.1496 14.7593 10.1577L14.5995 10.1332L14.5946 10.1641C14.5942 10.1672 14.5937 10.1703 14.5932 10.1733C13.2424 10.2942 11.857 10.2804 10.5141 10.1319C10.0414 10.0796 9.66497 9.71007 9.61081 9.2519C9.43396 7.75573 9.43396 6.24426 9.61081 4.7481C9.66497 4.28992 10.0414 3.92035 10.5141 3.86807C11.857 3.71956 13.2424 3.70576 14.5932 3.82668Z" fill="#1890FF"/>
</svg>
