<svg width="14" height="14" viewBox="0 0 14 14" fill="none" xmlns="http://www.w3.org/2000/svg">
<path fill-rule="evenodd" clip-rule="evenodd" d="M6.57428 12.4333C6.57428 12.2614 6.50635 12.0966 6.38544 11.975C6.26453 11.8535 6.10054 11.7852 5.92954 11.7852H2.70586V2.71109H5.92954C6.10054 2.71109 6.26453 2.6428 6.38544 2.52125C6.50635 2.3997 6.57428 2.23484 6.57428 2.06294C6.57428 1.89104 6.50635 1.72618 6.38544 1.60463C6.26453 1.48308 6.10054 1.41479 5.92954 1.41479H2.70586C2.36387 1.41479 2.03588 1.55137 1.79406 1.79447C1.55224 2.03757 1.41638 2.36729 1.41638 2.71109V11.7852C1.41638 12.129 1.55224 12.4587 1.79406 12.7018C2.03588 12.9449 2.36387 13.0815 2.70586 13.0815H5.92954C6.10054 13.0815 6.26453 13.0132 6.38544 12.8916C6.50635 12.7701 6.57428 12.6052 6.57428 12.4333Z" fill="#FFC107"/>
<path d="M13.482 7.70183C13.6 7.58132 13.6662 7.41912 13.6664 7.25007V7.24618C13.6661 7.07493 13.5981 6.91081 13.4775 6.78989L10.8986 4.19729C10.8391 4.13539 10.7679 4.08601 10.6893 4.05204C10.6106 4.01807 10.526 4.00019 10.4404 3.99944C10.3548 3.9987 10.2699 4.0151 10.1907 4.04769C10.1114 4.08028 10.0394 4.1284 9.97891 4.18926C9.91837 4.25011 9.8705 4.32248 9.83808 4.40214C9.80566 4.48179 9.78935 4.56714 9.79009 4.6532C9.79084 4.73926 9.80862 4.82431 9.84241 4.90339C9.8762 4.98246 9.92532 5.05398 9.9869 5.11377L11.4653 6.59998H5.28483C5.11384 6.59998 4.94985 6.66826 4.82894 6.78982C4.70802 6.91137 4.6401 7.07623 4.6401 7.24813C4.6401 7.42003 4.70802 7.58488 4.82894 7.70644C4.94985 7.82799 5.11384 7.89627 5.28483 7.89627H11.4653L9.9869 9.38248C9.86946 9.50472 9.80447 9.66844 9.80594 9.83839C9.80741 10.0083 9.87521 10.1709 9.99475 10.2911C10.1143 10.4112 10.276 10.4794 10.445 10.4809C10.6141 10.4824 10.777 10.417 10.8986 10.299L13.482 7.70183Z" fill="#FFC107"/>
</svg>
