<svg width="14" height="14" viewBox="0 0 14 14" fill="none" xmlns="http://www.w3.org/2000/svg">
<path d="M8.3 3.18272C8.3 2.90143 8.18938 2.63166 7.99246 2.43275C7.79555 2.23385 7.52848 2.12211 7.25 2.12211C6.97152 2.12211 6.70445 2.23385 6.50754 2.43275C6.31062 2.63166 6.2 2.90143 6.2 3.18272H5.5C5.5 2.7139 5.68437 2.26428 6.01256 1.93278C6.34075 1.60128 6.78587 1.41504 7.25 1.41504C7.71413 1.41504 8.15925 1.60128 8.48744 1.93278C8.81563 2.26428 9 2.7139 9 3.18272H12.15C12.2428 3.18272 12.3319 3.21996 12.3975 3.28626C12.4631 3.35256 12.5 3.44249 12.5 3.53625C12.5 3.63001 12.4631 3.71994 12.3975 3.78624C12.3319 3.85254 12.2428 3.88979 12.15 3.88979H11.7622L10.855 11.8302C10.8155 12.1748 10.652 12.4927 10.3955 12.7235C10.139 12.9543 9.80756 13.0818 9.4641 13.0817H5.0359C4.69244 13.0818 4.36095 12.9543 4.10449 12.7235C3.84803 12.4927 3.6845 12.1748 3.645 11.8302L2.7371 3.88979H2.35C2.26808 3.88981 2.18875 3.86082 2.12582 3.80784C2.06289 3.75487 2.02035 3.68128 2.0056 3.59989L2 3.53625C2 3.44249 2.03687 3.35256 2.10251 3.28626C2.16815 3.21996 2.25717 3.18272 2.35 3.18272H8.3ZM11.0566 3.88979H3.4427L4.3401 11.7489C4.35986 11.9213 4.44167 12.0803 4.56998 12.1957C4.69828 12.311 4.86411 12.3747 5.0359 12.3746H9.4641C9.63577 12.3746 9.80143 12.3108 9.92958 12.1954C10.0577 12.08 10.1395 11.9211 10.1592 11.7489L11.0566 3.88979ZM6.2 5.65746C6.3715 5.65746 6.515 5.76706 6.5444 5.9113L6.55 5.96716V10.298C6.55 10.4684 6.3932 10.607 6.2 10.607C6.0285 10.607 5.885 10.4974 5.8556 10.3531L5.85 10.2973V5.96787C5.85 5.79676 6.0068 5.65817 6.2 5.65817V5.65746ZM8.3 5.65746C8.4715 5.65746 8.615 5.76706 8.6444 5.9113L8.65 5.96716V10.298C8.65 10.4684 8.4932 10.607 8.3 10.607C8.1285 10.607 7.985 10.4974 7.9556 10.3531L7.95 10.2973V5.96787C7.95 5.79676 8.1068 5.65817 8.3 5.65817V5.65746Z" fill="#E63F3F"/>
</svg>
